{"title":"Haseena Maan Jayegi 1968 DvDrip ~ Action | Adventure | Drama ~ [","uid":6649255,"size":1492557824,"categoryP":"video","categoryS":"movies","magnet":"?xt=urn:btih:fbad7f85c0da50e6619fabb06e1b64d303ed3a4b&amp;dn=Haseena+Maan+Jayegi+1968+DvDrip+%7E+Action+%7C+Adventure+%7C+Drama+%7E+%5B&amp;tr=udp%3A%2F%2Ftracker.openbittorrent.com%3A80&amp;tr=udp%3A%2F%2Fopen.demonii.com%3A1337&amp;tr=udp%3A%2F%2Ftracker.coppersurfer.tk%3A6969&amp;tr=udp%3A%2F%2Fexodus.desync.com%3A6969","seeders":0,"leechers":0,"uploader":"ilyas2000pk","files":-1,"time":1315070508,"description":"Color\nC\n\nRelease Date\n1969\n\nGenre\nMusical  /  Romance\n\nDirector\nPrakash Mehra\n\nStar Cast\nShashi Kapoor\nBabita\nSapru\nAmeeta\nAmar\nJohny Walker\nManmohan\nNaranjan Sharma\n\nSingers\nLata Mangeshkar\nMohammed Rafi\n\n\nRipper                           : Rahul\nComplete name                    : Haseena Maan Jayegi 1968 DvDrip ~ Action | Adventure | Drama ~ [RdY] \nFormat                           : AVI\nFormat/Info                      : Audio Video Interleave\nFile size                        : 1.39 GiB\nDuration                         : 2h 45mn\nOverall bit rate                 : 1 201 Kbps\nWriting application              : VirtualDubMod 1.5.10.2 (build \n\nVideo\nID                               : 0\nFormat                           : MPEG-4 Visual\nFormat profile                   : Advanced Simple@L5\nFormat settings, BVOP            : 2\nFormat settings, QPel            : No\nFormat settings, GMC             : No warppoints\nFormat settings, Matrix          : Default (H.263)\nMuxing mode                      : Packed bitstream\nCodec ID                         : XVID\nCodec ID/Hint                    : XviD\nDuration                         : 2h 45mn\nBit rate                         : 1 062 Kbps\nWidth                            : 640 pixels\nHeight                           : 480 pixels\nDisplay aspect ratio             : 4:3\nFrame rate                       : 29.970 fps\nColor space                      : YUV\nChroma subsampling               : 4.2.0\nBit depth                        : 8 bits\nScan type                        : Progressive\nCompression mode                 : Lossy\nBits/(Pixel*Frame)               : 0.115\nStream size                      : 1.23 GiB (88%)\nWriting library                  : XviD 1.1.2 (UTC 2006-11-01)\n\nAudio\nID                               : 1\nFormat                           : MPEG Audio\nFormat version                   : Version 1\nFormat profile                   : Layer 3\nMode                             : Dual mono\nCodec ID                         : 55\nCodec ID/Hint                    : MP3\nDuration                         : 2h 45mn\nBit rate mode                    : Constant\nBit rate                         : 128 Kbps\nChannel(s)                       : 2 channels\nSampling rate                    : 48.0 KHz\nCompression mode                 : Lossy\nStream size                      : 152 MiB (11%)\nAlignment                        : Aligned on interleaves\nInterleave, duration             : 33 ms (1.00 video frame)\nInterleave, preload duration     : 504 ms\n\n\n","torrent":{"xt":"urn:btih:fbad7f85c0da50e6619fabb06e1b64d303ed3a4b","amp;dn":"Haseena+Maan+Jayegi+1968+DvDrip+%7E+Action+%7C+Adventure+%7C+Drama+%7E+%5B","amp;tr":["udp%3A%2F%2Ftracker.openbittorrent.com%3A80","udp%3A%2F%2Fopen.demonii.com%3A1337","udp%3A%2F%2Ftracker.coppersurfer.tk%3A6969","udp%3A%2F%2Fexodus.desync.com%3A6969"],"infoHash":"fbad7f85c0da50e6619fabb06e1b64d303ed3a4b","infoHashBuffer":{"type":"Buffer","data":[251,173,127,133,192,218,80,230,97,159,171,176,110,27,100,211,3,237,58,75]},"announce":[],"urlList":[]}}